<svg xmlns="http://www.w3.org/2000/svg" viewBox="0 0 24 24" id="Flutter"><path d="M21.25 24h-7.031a.499.499 0 0 1-.354-.147l-6.17-6.201a.501.501 0 0 1 0-.706l6.171-6.188a.504.504 0 0 1 .355-.148h7.029a.502.502 0 0 1 .355.852l-5.81 5.838 5.81 5.846a.5.5 0 0 1-.355.854zm-6.823-1h5.621l-5.313-5.346a.5.5 0 0 1 0-.705l5.312-5.338h-5.619L8.755 17.3l5.672 5.7zm-8.149-6.954a.499.499 0 0 1-.354-.147l-3.528-3.546a.501.501 0 0 1 0-.706L13.853.147c.125-.125.3-.17.459-.136h6.923a.502.502 0 0 1 .355.852L6.633 15.899a.5.5 0 0 1-.355.147zM3.456 12l2.823 2.837L20.032 1.011h-5.629L3.456 12z" fill="#ffffff" class="color000000 svgShape"></path></svg>